<?xml version="1.0" encoding="UTF-8"?>
<svg id="Capa_1" data-name="Capa 1" xmlns="http://www.w3.org/2000/svg" width="35.37mm" height="54.29mm" viewBox="0 0 100.28 153.89">
  <defs>
    <style>
      .cls-1 {
        fill: #1d1d1b;
        stroke: #000;
        stroke-miterlimit: 10;
        stroke-width: .28px;
      }
    </style>
  </defs>
  <path class="cls-1" d="M21.11,98.22v-58.36c0-7.25,2.01-12.92,6.03-17.03,4.02-4.1,9.59-6.16,16.7-6.16h22.1v18.71h-18.34c-1.36,0-2.53.48-3.53,1.44s-1.49,2.19-1.49,3.68v57.72h-21.48Z"/>
  <path class="cls-1" d="M79.89,51.12v58.36c0,7.25-2.01,12.92-6.03,17.03-4.02,4.1-9.59,6.16-16.7,6.16h-22.1v-18.71h18.34c1.36,0,2.53-.48,3.53-1.44.99-.96,1.49-2.19,1.49-3.68v-57.72h21.48Z"/>
</svg>