<svg xmlns="http://www.w3.org/2000/svg" xmlns:xlink="http://www.w3.org/1999/xlink" width="40" zoomAndPan="magnify" viewBox="0 0 30 30.000001" height="40" preserveAspectRatio="xMidYMid meet" version="1.0"><defs><clipPath id="2574d7e8d7"><path d="M 0.484375 0 L 29.515625 0 L 29.515625 29.03125 L 0.484375 29.03125 Z M 0.484375 0 " clip-rule="nonzero"/></clipPath></defs><g clip-path="url(#2574d7e8d7)"><path fill="#ffffff" d="M 0.484375 0 L 29.515625 0 L 29.515625 29.03125 L 0.484375 29.03125 Z M 0.484375 0 " fill-opacity="1" fill-rule="nonzero"/><path fill="#ffffff" d="M 0.484375 0 L 29.515625 0 L 29.515625 29.03125 L 0.484375 29.03125 Z M 0.484375 0 " fill-opacity="1" fill-rule="nonzero"/></g><path stroke-linecap="butt" transform="matrix(0.224372, 0, 0, 0.225405, 4.079202, -2.035195)" fill-opacity="1" fill="#1d1d1b" fill-rule="nonzero" stroke-linejoin="miter" d="M 21.113192 98.226102 L 21.113192 39.858964 C 21.113192 32.615062 23.11531 26.948181 27.136956 22.823663 C 31.158602 18.733804 36.729713 16.671544 43.83288 16.671544 L 65.943227 16.671544 L 65.943227 35.387847 L 47.59338 35.387847 C 46.235422 35.387847 45.06897 35.855755 44.076616 36.82623 C 43.066852 37.779375 42.57938 39.009799 42.57938 40.500171 L 42.57938 98.226102 L 21.095783 98.226102 Z M 21.113192 98.226102 " stroke="#000000" stroke-width="0.28" stroke-opacity="1" stroke-miterlimit="10"/><path stroke-linecap="butt" transform="matrix(0.224372, 0, 0, 0.225405, 4.079202, -2.035195)" fill-opacity="1" fill="#1d1d1b" fill-rule="nonzero" stroke-linejoin="miter" d="M 79.888415 51.123406 L 79.888415 109.473214 C 79.888415 116.734446 77.886297 122.401327 73.864651 126.508516 C 69.843005 130.615704 64.271894 132.677964 57.151317 132.677964 L 35.05838 132.677964 L 35.05838 113.961661 L 53.408227 113.961661 C 54.766185 113.961661 55.932637 113.476423 56.924991 112.523278 C 57.917345 111.552803 58.422227 110.322379 58.422227 108.832007 L 58.422227 51.123406 L 79.905824 51.123406 Z M 79.888415 51.123406 " stroke="#000000" stroke-width="0.28" stroke-opacity="1" stroke-miterlimit="10"/></svg>