<?xml version="1.0" encoding="UTF-8"?>
<svg id="Capa_1" data-name="Capa 1" xmlns="http://www.w3.org/2000/svg" width="48.68mm" height="53.62mm" viewBox="0 0 138 152">
  <defs>
    <style>
      .cls-1 {
        fill: #1d1d1b;
      }
    </style>
  </defs>
  <path class="cls-1" d="M104.93,32.56H34.07c-3.13,0-5.67,2.54-5.67,5.67v70.87c0,3.13,2.54,5.67,5.67,5.67h70.87c3.13,0,5.67-2.54,5.67-5.67V38.23c0-3.13-2.54-5.67-5.67-5.67ZM58.56,59.79c0-2.89.8-5.15,2.41-6.79,1.6-1.63,3.82-2.45,6.65-2.45h8.81v7.45h-7.31c-.54,0-1.01.19-1.41.57s-.59.87-.59,1.47v23h-8.56v-23.26ZM81.99,87.54c0,2.89-.8,5.15-2.41,6.79-1.6,1.63-3.82,2.45-6.65,2.45h-8.81v-7.45h7.31c.54,0,1.01-.19,1.41-.57s.59-.87.59-1.47v-23h8.56v23.26Z"/>
</svg>