<svg xmlns="http://www.w3.org/2000/svg" xmlns:xlink="http://www.w3.org/1999/xlink" width="40" zoomAndPan="magnify" viewBox="0 0 30 30.000001" height="40" preserveAspectRatio="xMidYMid meet" version="1.0"><path fill="#1d1d1b" d="M 26.214844 1.359375 L 3.855469 1.359375 C 2.867188 1.359375 2.066406 2.15625 2.066406 3.144531 L 2.066406 25.464844 C 2.066406 26.449219 2.867188 27.25 3.855469 27.25 L 26.21875 27.25 C 27.207031 27.25 28.007812 26.449219 28.007812 25.464844 L 28.007812 3.144531 C 28.007812 2.15625 27.207031 1.359375 26.21875 1.359375 Z M 11.582031 9.933594 C 11.582031 9.023438 11.835938 8.3125 12.34375 7.796875 C 12.847656 7.28125 13.550781 7.023438 14.441406 7.023438 L 17.222656 7.023438 L 17.222656 9.371094 L 14.917969 9.371094 C 14.746094 9.371094 14.597656 9.429688 14.472656 9.550781 C 14.34375 9.667969 14.285156 9.824219 14.285156 10.011719 L 14.285156 17.257812 L 11.582031 17.257812 L 11.582031 9.929688 Z M 18.976562 18.675781 C 18.976562 19.585938 18.726562 20.296875 18.21875 20.8125 C 17.710938 21.324219 17.011719 21.582031 16.117188 21.582031 L 13.339844 21.582031 L 13.339844 19.238281 L 15.644531 19.238281 C 15.816406 19.238281 15.964844 19.179688 16.089844 19.058594 C 16.214844 18.9375 16.277344 18.785156 16.277344 18.59375 L 16.277344 11.351562 L 18.976562 11.351562 Z M 18.976562 18.675781 " fill-opacity="1" fill-rule="nonzero"/></svg>